<?xml version="1.0" encoding="UTF-8" standalone="no"?>
<!-- Created with Inkscape (http://www.inkscape.org/) -->

<svg
   width="488.42514"
   height="498.56943"
   viewBox="0 0 488.42514 498.56943"
   version="1.1"
   id="svg1"
   xml:space="preserve"
   xmlns="http://www.w3.org/2000/svg"
   xmlns:svg="http://www.w3.org/2000/svg"><defs
     id="defs1" /><g
     id="layer1"
     transform="translate(-11.251513,-6.8415847)"><path
       style="opacity:1;fill:#000000;fill-opacity:1;stroke:#000000;stroke-width:3.40535;stroke-linecap:round;stroke-linejoin:round;stroke-dasharray:none;stroke-opacity:1"
       d="M 236.04469,10.447453 22.179269,93.938476 a 14.497112,14.497112 124.07718 0 0 -9.22448,13.636194 l 2.740154,301.65539 a 14.105025,14.105025 54.144166 0 0 9.556833,13.2237 L 259.73254,502.3176 A 26.045991,26.045991 177.80517 0 0 278.39,501.60254 l 210.09659,-90.04072 a 15.181234,15.181234 123.42835 0 0 9.20108,-13.93917 l 0.2863,-297.52741 A 13.812202,13.812202 54.150688 0 0 488.48639,86.964227 L 254.8572,9.9418585 a 27.797802,27.797802 178.46052 0 0 -18.81251,0.5055945 z"
       id="Backfill" /><path
       id="u5"
       style="display:inline;opacity:1;fill:#COLORu5;fill-opacity:1;stroke:#000000;stroke-width:3.40535;stroke-linecap:round;stroke-linejoin:round;stroke-dasharray:none;stroke-opacity:1"
       d="m 226.46705,73.747008 -22.15871,9.142703 a 11.27606,11.27606 88.178578 0 0 0.67098,21.099509 l 27.51597,9.35554 a 79.872065,79.872065 178.19203 0 0 56.14069,-1.7721 l 23.06203,-9.50274 a 11.151843,11.151843 87.997338 0 0 -0.73058,-20.893228 l -28.30009,-9.408071 a 80.64615,80.64615 177.98388 0 0 -56.20029,1.978387 z" /><path
       id="u4"
       style="display:inline;opacity:1;fill:#COLORu4;fill-opacity:1;stroke:#000000;stroke-width:3.40535;stroke-linecap:round;stroke-linejoin:round;stroke-dasharray:none;stroke-opacity:1"
       d="M 103.1396,69.363562 167.10844,91.113 a 26.60517,26.60517 178.17848 0 0 18.71179,-0.595076 l 59.13493,-24.399129 a 3.7198991,3.7198991 87.983604 0 0 -0.24534,-6.968659 L 182.35073,38.420177 a 27.707049,27.707049 178.54282 0 0 -18.80614,0.478392 l -60.55597,23.613018 a 3.647681,3.647681 88.737701 0 0 0.15098,6.851975 z" /><path
       id="u7"
       style="display:inline;opacity:1;fill:#COLORu7;fill-opacity:1;stroke:#000000;stroke-width:3.40535;stroke-linecap:round;stroke-linejoin:round;stroke-dasharray:none;stroke-opacity:1"
       d="M 106.97063,123.05115 167.3321,98.146115 A 3.7586542,3.7586542 88.178553 0 0 167.10844,91.113 L 103.1396,69.363562 A 27.414976,27.414976 178.7379 0 0 84.355106,69.77741 L 22.349972,93.955012 a 3.6764922,3.6764922 88.883657 0 0 0.134457,6.900038 l 65.790907,22.74302 a 26.401141,26.401141 178.32431 0 0 18.695294,-0.54692 z" /><path
       id="u8"
       style="display:inline;opacity:1;fill:#COLORu8;fill-opacity:1;stroke:#000000;stroke-width:3.40535;stroke-linecap:round;stroke-linejoin:round;stroke-dasharray:none;stroke-opacity:1"
       d="m 190.60518,151.96746 61.04746,-25.15563 a 3.7560808,3.7560808 88.191661 0 0 -0.22192,-7.02894 L 186.04389,97.551093 a 26.605136,26.605136 178.17865 0 0 -18.71179,0.595022 l -60.36147,24.905035 a 3.7877998,3.7877998 88.324733 0 0 0.20711,7.08138 l 64.73046,22.37751 a 26.418664,26.418664 178.33775 0 0 18.69698,-0.54258 z" /><path
       id="u9"
       style="display:inline;opacity:1;fill:#COLORu9;fill-opacity:1;stroke:#000000;stroke-width:3.40535;stroke-linecap:round;stroke-linejoin:round;stroke-dasharray:none;stroke-opacity:1"
       d="m 336.64753,148.75744 -66.28139,-22.53637 a 26.623262,26.623262 178.19183 0 0 -18.7135,0.59076 l -61.04746,25.15563 a 3.7851262,3.7851262 88.337364 0 0 0.20542,7.07705 l 65.0956,22.50277 a 26.606413,26.606413 178.47096 0 0 18.71468,-0.49956 l 62.23089,-25.30443 a 3.7295307,3.7295307 88.325422 0 0 -0.20424,-6.98585 z" /><path
       id="u6"
       style="display:inline;opacity:1;fill:#COLORu6;fill-opacity:1;stroke:#000000;stroke-width:3.40535;stroke-linecap:round;stroke-linejoin:round;stroke-dasharray:none;stroke-opacity:1"
       d="M 416.6161,116.29848 348.92492,93.795267 a 26.901392,26.901392 177.99733 0 0 -18.73522,0.655122 l -60.04541,24.741801 a 3.7560396,3.7560396 88.192199 0 0 0.22185,7.02888 l 66.28139,22.53637 a 26.814053,26.814053 178.32614 0 0 18.73126,-0.54737 l 61.46312,-24.99046 a 3.6906953,3.6906953 88.131272 0 0 -0.22581,-6.92113 z" /><path
       id="u3"
       style="display:inline;opacity:1;fill:#COLORu3;fill-opacity:1;stroke:#000000;stroke-width:3.40535;stroke-linecap:round;stroke-linejoin:round;stroke-dasharray:none;stroke-opacity:1"
       d="m 401.16043,65.206311 -52.47906,21.624487 a 3.7173185,3.7173185 87.997135 0 0 0.24355,6.964469 l 67.69118,22.503213 a 27.094145,27.094145 178.13057 0 0 18.75284,-0.61208 L 488.69942,94.001096 A 3.6750884,3.6750884 88.051129 0 0 488.4648,87.10606 L 419.90434,64.524799 a 27.015743,27.015743 177.91769 0 0 -18.74391,0.681512 z" /><path
       id="u2"
       style="display:inline;opacity:1;fill:#COLORu2;fill-opacity:1;stroke:#000000;stroke-width:3.40535;stroke-linecap:round;stroke-linejoin:round;stroke-dasharray:none;stroke-opacity:1"
       d="M 315.52154,37.003501 263.4433,58.49064 a 3.719918,3.719918 87.984065 0 0 0.24529,6.968692 l 66.25759,22.026649 a 26.901101,26.901101 177.99714 0 0 18.73519,-0.655183 l 52.47906,-21.624487 a 3.7015575,3.7015575 87.917754 0 0 -0.25226,-6.938163 L 334.2637,36.317789 a 26.996726,26.996726 177.90468 0 0 -18.74216,0.685712 z" /><path
       id="u1"
       style="display:inline;opacity:1;fill:#COLORu1;fill-opacity:1;stroke:#000000;stroke-width:3.40535;stroke-linecap:round;stroke-linejoin:round;stroke-dasharray:none;stroke-opacity:1"
       d="m 235.98793,10.650488 -53.80984,20.982227 a 3.6091691,3.6091691 88.542926 0 0 0.17264,6.787462 l 62.35909,20.729959 A 26.882713,26.882713 177.98379 0 0 263.4433,58.49064 l 52.07824,-21.487139 a 3.7041672,3.7041672 87.904749 0 0 -0.25399,-6.942407 L 254.80276,10.145937 a 27.827363,27.827363 178.46389 0 0 -18.81483,0.504551 z" /><path
       id="f5"
       style="display:inline;opacity:1;fill:#COLORf5;fill-opacity:1;stroke:#000000;stroke-width:3.40535;stroke-linecap:round;stroke-linejoin:round;stroke-dasharray:none;stroke-opacity:1"
       d="m 97.864362,262.1792 0.281041,49.30371 a 42.187691,42.187691 54.256474 0 0 28.563797,39.68708 l 28.47808,9.71666 a 21.332831,21.332831 144.25596 0 0 28.22126,-20.31194 l -0.28192,-49.30176 a 42.189722,42.189722 54.256747 0 0 -28.56407,-39.68786 l -28.47666,-9.71705 A 21.332616,21.332616 144.25726 0 0 97.864362,262.1792 Z" /><path
       id="f4"
       style="display:inline;opacity:1;fill:#COLORf4;fill-opacity:1;stroke:#000000;stroke-width:3.40535;stroke-linecap:round;stroke-linejoin:round;stroke-dasharray:none;stroke-opacity:1"
       d="m 24.325598,316.23699 64.526538,22.01625 a 7.111087,7.111087 144.25644 0 0 9.407269,-6.77066 L 97.75036,242.17953 A 14.062481,14.062481 54.256314 0 0 88.229075,228.95055 L 23.3178,206.80336 a 7.0847369,7.0847369 144.15579 0 0 -9.372194,6.77044 l 0.823632,89.43443 a 14.114917,14.114917 54.155919 0 0 9.55636,13.22876 z" /><path
       id="f7"
       style="display:inline;opacity:1;fill:#COLORf7;fill-opacity:1;stroke:#000000;stroke-width:3.40535;stroke-linecap:round;stroke-linejoin:round;stroke-dasharray:none;stroke-opacity:1"
       d="M 98.861081,437.22672 98.373294,351.48226 A 14.062379,14.062379 54.256768 0 0 88.852136,338.25324 L 24.325598,316.23699 a 7.0847894,7.0847894 144.15625 0 0 -9.372295,6.7704 l 0.788706,85.74889 a 14.134547,14.134547 54.194129 0 0 9.551967,13.24127 l 64.164001,21.98732 a 7.1012223,7.1012223 144.29465 0 0 9.403104,-6.75815 z" /><path
       id="f8"
       style="display:inline;opacity:1;fill:#COLORf8;fill-opacity:1;stroke:#000000;stroke-width:3.40535;stroke-linecap:round;stroke-linejoin:round;stroke-dasharray:none;stroke-opacity:1"
       d="m 184.12659,466.44352 -0.48951,-85.86946 a 14.062569,14.062569 54.256464 0 0 -9.52127,-13.22903 l -66.33514,-22.63342 a 7.1111642,7.1111642 144.2568 0 0 -9.407376,6.77065 l 0.487787,85.74446 a 14.08185,14.08185 54.294201 0 0 9.516929,13.24138 l 66.34554,22.73372 a 7.101252,7.101252 144.29387 0 0 9.40304,-6.7583 z" /><path
       id="f9"
       style="display:inline;opacity:1;fill:#COLORf9;fill-opacity:1;stroke:#000000;stroke-width:3.40535;stroke-linecap:round;stroke-linejoin:round;stroke-dasharray:none;stroke-opacity:1"
       d="m 258.4459,396.11845 -65.40156,-22.31502 a 7.1110619,7.1110619 144.25652 0 0 -9.40726,6.77063 l 0.48951,85.86946 a 14.082376,14.082376 54.294543 0 0 9.51697,13.24161 l 65.82616,22.55748 a 7.071744,7.071744 144.18267 0 0 9.36392,-6.75777 l -0.82743,-86.13764 a 14.120895,14.120895 54.144648 0 0 -9.56031,-13.22875 z" /><path
       id="f6"
       style="display:inline;opacity:1;fill:#COLORf6;fill-opacity:1;stroke:#000000;stroke-width:3.40535;stroke-linecap:round;stroke-linejoin:round;stroke-dasharray:none;stroke-opacity:1"
       d="m 257.39508,286.67131 -64.9757,-22.16879 a 7.1110267,7.1110267 144.25564 0 0 -9.40712,6.77076 l 0.51064,89.3011 a 14.06286,14.06286 54.256014 0 0 9.52144,13.22905 l 65.40156,22.31502 a 7.0817417,7.0817417 144.14479 0 0 9.36826,-6.77033 l -0.85878,-89.44819 a 14.120626,14.120626 54.144421 0 0 -9.5603,-13.22862 z" /><path
       id="f3"
       style="display:inline;opacity:1;fill:#COLORf3;fill-opacity:1;stroke:#000000;stroke-width:3.40535;stroke-linecap:round;stroke-linejoin:round;stroke-dasharray:none;stroke-opacity:1"
       d="m 182.41447,166.52328 0.48356,84.75032 a 14.06248,14.06248 54.256003 0 0 9.52135,13.22892 l 64.9757,22.16879 a 7.0818586,7.0818586 144.1445 0 0 9.36832,-6.77046 l -0.81,-84.39154 a 14.200603,14.200603 54.29705 0 0 -9.54295,-13.27898 l -64.60606,-22.42745 a 7.071107,7.071107 144.40856 0 0 -9.38992,6.7204 z" /><path
       id="f2"
       style="display:inline;opacity:1;fill:#COLORf2;fill-opacity:1;stroke:#000000;stroke-width:3.40535;stroke-linecap:round;stroke-linejoin:round;stroke-dasharray:none;stroke-opacity:1"
       d="m 97.150715,136.92172 0.485679,85.25813 a 14.062919,14.062919 54.257365 0 0 9.521146,13.22929 l 66.33336,22.63485 a 7.1108313,7.1108313 144.25711 0 0 9.40713,-6.77039 l -0.48356,-84.75032 a 14.142526,14.142526 54.409454 0 0 -9.50392,-13.27957 l -66.36993,-23.0421 a 7.0709401,7.0709401 144.40971 0 0 -9.389905,6.72011 z" /><path
       id="f1"
       style="display:inline;opacity:1;fill:#COLORf1;fill-opacity:1;stroke:#000000;stroke-width:3.40535;stroke-linecap:round;stroke-linejoin:round;stroke-dasharray:none;stroke-opacity:1"
       d="m 12.970945,107.68708 0.790532,85.88756 a 14.114774,14.114774 54.155936 0 0 9.556323,13.22872 l 64.911275,22.14719 a 7.111148,7.111148 144.25642 0 0 9.407319,-6.7707 L 97.150715,136.92172 A 14.141906,14.141906 54.408785 0 0 87.646774,123.64245 L 22.325882,100.96693 a 7.0449087,7.0449087 144.3083 0 0 -9.354937,6.72015 z" /><path
       id="r5"
       style="display:inline;opacity:1;fill:#COLORr5;fill-opacity:1;stroke:#000000;stroke-width:3.40535;stroke-linecap:round;stroke-linejoin:round;stroke-dasharray:none;stroke-opacity:1"
       d="m 398.31425,236.82606 -24.70077,10.06663 a 44.317427,44.317427 123.73154 0 0 -27.59092,41.32154 l 0.31035,48.8645 a 20.308102,20.308102 33.731623 0 0 27.97201,18.67732 l 24.01126,-9.78554 a 44.621014,44.621014 123.91305 0 0 27.78094,-41.32207 l -8.8e-4,-49.14453 a 20.169806,20.169806 33.912971 0 0 -27.78199,-18.67785 z" /><path
       id="r2"
       style="display:inline;opacity:1;fill:#COLORr2;fill-opacity:1;stroke:#000000;stroke-width:3.40535;stroke-linecap:round;stroke-linejoin:round;stroke-dasharray:none;stroke-opacity:1"
       d="m 345.22747,162.87089 0.54115,85.34415 a 6.7692709,6.7692709 33.731836 0 0 9.32389,6.22575 l 61.74271,-25.16283 a 14.874006,14.874006 123.91349 0 0 9.26048,-13.77405 v -85.78125 a 6.7104405,6.7104405 33.863351 0 0 -9.25386,-6.20975 l -62.42392,25.56793 a 14.800521,14.800521 123.6817 0 0 -9.19045,13.79005 z" /><path
       id="r1"
       style="display:inline;opacity:1;fill:#COLORr1;fill-opacity:1;stroke:#000000;stroke-width:3.40535;stroke-linecap:round;stroke-linejoin:round;stroke-dasharray:none;stroke-opacity:1"
       d="m 276.47336,286.48178 60.0982,-24.49286 a 14.772693,14.772693 123.73174 0 0 9.19706,-13.77388 l -0.54115,-85.34415 a 6.7565115,6.7565115 33.681673 0 0 -9.31727,-6.20954 l -60.29696,24.69683 a 14.772188,14.772188 123.6307 0 0 -9.17266,13.78993 l 0.69111,85.10808 a 6.7822281,6.7822281 33.680764 0 0 9.34167,6.22559 z" /><path
       id="r4"
       style="display:inline;opacity:1;fill:#COLORr4;fill-opacity:1;stroke:#000000;stroke-width:3.40535;stroke-linecap:round;stroke-linejoin:round;stroke-dasharray:none;stroke-opacity:1"
       d="m 277.3561,395.2687 59.90694,-24.41631 a 14.772848,14.772848 123.73087 0 0 9.19689,-13.77407 l -0.56439,-88.86368 a 6.7693216,6.7693216 33.731444 0 0 -9.32398,-6.22572 l -60.0982,24.49286 a 14.744502,14.744502 123.68092 0 0 -9.17932,13.77375 l 0.72051,88.78777 a 6.7820427,6.7820427 33.680342 0 0 9.34155,6.2254 z" /><path
       id="r7"
       style="display:inline;opacity:1;fill:#COLORr7;fill-opacity:1;stroke:#000000;stroke-width:3.40535;stroke-linecap:round;stroke-linejoin:round;stroke-dasharray:none;stroke-opacity:1"
       d="m 347.12601,462.06075 -0.53913,-84.98283 a 6.7691231,6.7691231 33.731075 0 0 -9.32384,-6.22553 L 277.3561,395.2687 a 14.744929,14.744929 123.68054 0 0 -9.17932,13.77394 l 0.70112,86.47136 a 6.6580694,6.6580694 33.1914 0 0 9.27569,6.06785 l 59.84125,-25.58948 a 15.048124,15.048124 123.24194 0 0 9.13117,-13.93162 z" /><path
       id="r8"
       style="display:inline;opacity:1;fill:#COLORr8;fill-opacity:1;stroke:#000000;stroke-width:3.40535;stroke-linecap:round;stroke-linejoin:round;stroke-dasharray:none;stroke-opacity:1"
       d="m 426.09766,428.31641 v -83.66797 a 6.7231592,6.7231592 33.913569 0 0 -9.26049,-6.22598 l -61.05324,24.88164 a 14.772543,14.772543 123.73183 0 0 -9.19705,13.77382 l 0.53913,84.98283 a 6.6452538,6.6452538 33.241566 0 0 9.258,6.06786 l 60.51909,-25.88026 a 15.152381,15.152381 123.42331 0 0 9.19456,-13.93194 z" /><path
       id="r9"
       style="display:inline;opacity:1;fill:#COLORr9;fill-opacity:1;stroke:#000000;stroke-width:3.40535;stroke-linecap:round;stroke-linejoin:round;stroke-dasharray:none;stroke-opacity:1"
       d="m 488.48366,309.22329 -53.12552,21.65108 a 14.874039,14.874039 123.91343 0 0 -9.26048,13.77407 v 83.66797 a 6.5997572,6.5997572 33.423842 0 0 9.19463,6.06823 l 53.14199,-22.72435 a 15.170654,15.170654 123.45612 0 0 9.2059,-13.93176 l 0.0927,-82.27932 a 6.7149473,6.7149473 33.945703 0 0 -9.24921,-6.22592 z" /><path
       id="r6"
       style="display:inline;opacity:1;fill:#COLORr6;fill-opacity:1;stroke:#000000;stroke-width:3.40535;stroke-linecap:round;stroke-linejoin:round;stroke-dasharray:none;stroke-opacity:1"
       d="m 488.60478,200.02805 -53.24863,21.70172 a 14.873866,14.873866 123.91269 0 0 -9.26027,13.77414 l 0.002,89.14453 a 6.7232565,6.7232565 33.912903 0 0 9.26066,6.22593 l 53.12552,-21.65108 a 14.891859,14.891859 123.94519 0 0 9.27157,-13.77406 l 0.0989,-89.19533 a 6.7150235,6.7150235 33.94497 0 0 -9.24936,-6.22585 z" /><path
       id="r3"
       style="display:inline;opacity:1;fill:#COLORr3;fill-opacity:1;stroke:#000000;stroke-width:3.40535;stroke-linecap:round;stroke-linejoin:round;stroke-dasharray:none;stroke-opacity:1"
       d="m 488.73055,94.067676 -53.38102,21.864654 a 14.902296,14.902296 123.86309 0 0 -9.25383,13.79033 v 85.78125 a 6.7230687,6.7230687 33.913212 0 0 9.26045,6.22586 l 53.24863,-21.70172 a 14.892234,14.892234 123.94542 0 0 9.27169,-13.77413 l 0.0967,-85.97658 a 6.7022258,6.7022258 33.895304 0 0 -9.24259,-6.209664 z" /></g></svg>
